<svg width="436" height="233" viewBox="0 0 436 233" fill="none" xmlns="http://www.w3.org/2000/svg">
<g clip-path="url(#clip0_30_8621)">
<path d="M259.249 146.805C256.875 145.624 254.141 145.389 251.6 146.148C249.059 146.908 246.902 148.603 245.564 150.893C244.589 152.586 243.556 154.221 242.466 155.799C240.626 158.637 238.644 161.381 236.527 164.019C232.519 168.936 226.723 172.062 220.413 172.707C214.102 173.353 207.793 171.466 202.873 167.461C201.62 166.425 200.467 165.272 199.43 164.019C197.365 161.437 195.385 158.725 193.491 155.928C183.825 141.027 177.132 124.397 173.781 106.954C171.852 97.3881 170.629 87.6933 170.123 77.9481C169.795 71.6913 171.701 65.5215 175.5 60.5396C179.299 55.5578 184.746 52.0881 190.866 50.7497H191.168C200.038 48.8839 209.024 47.6187 218.065 46.9626C227.09 47.6064 236.061 48.8573 244.919 50.7067H245.177C251.297 52.055 256.739 55.5348 260.531 60.5248C264.323 65.5148 266.217 71.6901 265.877 77.9481C265.877 79.8416 265.877 81.7782 265.489 83.8009C265.36 85.1763 265.505 86.5637 265.916 87.8825C266.328 89.2013 266.998 90.425 267.887 91.4823C268.776 92.5397 269.867 93.4096 271.095 94.0414C272.324 94.6731 273.666 95.0541 275.043 95.1622L300.52 97.1848C301.889 97.3026 303.267 97.1486 304.576 96.7314C305.885 96.3143 307.098 95.6424 308.146 94.7544C309.194 93.8664 310.056 92.7798 310.682 91.5573C311.309 90.3347 311.687 89.0004 311.795 87.631C313.018 72.6312 312.902 57.5524 311.451 42.573C311.116 39.0657 310.079 35.6616 308.4 32.5637C306.722 29.4658 304.437 26.7375 301.682 24.5413C277.755 5.69179 234.117 1.47433 221.507 0.484521C219.172 0.312451 216.828 0.312451 214.493 0.484521C201.883 1.47433 158.246 5.69179 134.318 24.5413C131.564 26.7419 129.277 29.4706 127.592 32.5671C125.907 35.6636 124.858 39.0654 124.506 42.573C121.407 74.3331 118.481 178.435 206.273 229.647C209.898 231.761 214.019 232.874 218.215 232.874C222.411 232.874 226.532 231.761 230.157 229.647C253.627 216 273.098 196.425 286.62 172.884C287.317 171.698 287.773 170.385 287.963 169.023C288.152 167.66 288.07 166.273 287.722 164.941C287.374 163.61 286.767 162.361 285.936 161.264C285.104 160.168 284.064 159.247 282.876 158.553L282.23 158.209L259.249 146.805Z" fill="#FDB235"/>
</g>
<defs>
<clipPath id="clip0_30_8621">
<rect width="189.226" height="232.391" fill="white" transform="translate(123.387 0.484375)"/>
</clipPath>
</defs>
</svg>
